name ./resultDataOpenSim/trcMotMarkerGrf/sub06/grf-02-08.mot
datacolumns 19
datarows 25
range 1.46400000 1.56000000
endheader

                time	     ground_force_vx	     ground_force_vy	     ground_force_vz	     ground_force_px	     ground_force_py	     ground_force_pz	   l_ground_force_vx	   l_ground_force_vy	   l_ground_force_vz	   l_ground_force_px	   l_ground_force_py	   l_ground_force_pz	     ground_torque_x	     ground_torque_y	     ground_torque_z	   l_ground_torque_x	   l_ground_torque_y	   l_ground_torque_z	
          1.46400000	         88.69588003	        632.09744029	        -21.29208058	          0.85685973	          0.00000000	          0.13638301	          0.00000000	          0.00000000	          0.00000000	          0.00000000	          0.00000000	          0.00000000	          0.00000000	          4.46758677	          0.00000000	          0.00000000	          0.00000000	          0.00000000	
          1.46800000	         94.22572636	        644.32193638	        -21.56091192	          0.85711887	          0.00000000	          0.13618896	          0.00000000	          0.00000000	          0.00000000	          0.00000000	          0.00000000	          0.00000000	          0.00000000	          4.51736958	          0.00000000	          0.00000000	          0.00000000	          0.00000000	
          1.47200000	         99.48736678	        656.01401187	        -21.46137919	          0.85743614	          0.00000000	          0.13600492	          0.00000000	          0.00000000	          0.00000000	          0.00000000	          0.00000000	          0.00000000	          0.00000000	          4.54523379	          0.00000000	          0.00000000	          0.00000000	          0.00000000	
          1.47600000	        104.49160625	        667.10408657	        -21.19920198	          0.85780229	          0.00000000	          0.13582754	          0.00000000	          0.00000000	          0.00000000	          0.00000000	          0.00000000	          0.00000000	          0.00000000	          4.55955819	          0.00000000	          0.00000000	          0.00000000	          0.00000000	
          1.48000000	        109.33776467	        677.50391696	        -21.02043213	          0.85820697	          0.00000000	          0.13565809	          0.00000000	          0.00000000	          0.00000000	          0.00000000	          0.00000000	          0.00000000	          0.00000000	          4.56786851	          0.00000000	          0.00000000	          0.00000000	          0.00000000	
          1.48400000	        114.17716902	        687.11627745	        -21.15537518	          0.85862463	          0.00000000	          0.13549947	          0.00000000	          0.00000000	          0.00000000	          0.00000000	          0.00000000	          0.00000000	          0.00000000	          4.57624984	          0.00000000	          0.00000000	          0.00000000	          0.00000000	
          1.48800000	        119.16097300	        695.83222686	        -21.77245010	          0.85902533	          0.00000000	          0.13535440	          0.00000000	          0.00000000	          0.00000000	          0.00000000	          0.00000000	          0.00000000	          0.00000000	          4.58885037	          0.00000000	          0.00000000	          0.00000000	          0.00000000	
          1.49200000	        124.39617105	        703.52612660	        -22.94495701	          0.85939796	          0.00000000	          0.13522553	          0.00000000	          0.00000000	          0.00000000	          0.00000000	          0.00000000	          0.00000000	          0.00000000	          4.60750173	          0.00000000	          0.00000000	          0.00000000	          0.00000000	
          1.49600000	        129.92322906	        710.05947331	        -24.63487277	          0.85973940	          0.00000000	          0.13510962	          0.00000000	          0.00000000	          0.00000000	          0.00000000	          0.00000000	          0.00000000	          0.00000000	          4.63171777	          0.00000000	          0.00000000	          0.00000000	          0.00000000	
          1.50000000	        135.71085868	        715.28989742	        -26.69880093	          0.86006011	          0.00000000	          0.13500494	          0.00000000	          0.00000000	          0.00000000	          0.00000000	          0.00000000	          0.00000000	          0.00000000	          4.65927803	          0.00000000	          0.00000000	          0.00000000	          0.00000000	
          1.50400000	        141.65953099	        719.08369011	        -28.91238774	          0.86036223	          0.00000000	          0.13490645	          0.00000000	          0.00000000	          0.00000000	          0.00000000	          0.00000000	          0.00000000	          0.00000000	          4.68722213	          0.00000000	          0.00000000	          0.00000000	          0.00000000	
          1.50800000	        147.61628805	        721.32401534	        -31.00738308	          0.86064755	          0.00000000	          0.13480647	          0.00000000	          0.00000000	          0.00000000	          0.00000000	          0.00000000	          0.00000000	          0.00000000	          4.71268154	          0.00000000	          0.00000000	          0.00000000	          0.00000000	
          1.51200000	        153.41429576	        721.91380494	        -32.71716453	          0.86093634	          0.00000000	          0.13469867	          0.00000000	          0.00000000	          0.00000000	          0.00000000	          0.00000000	          0.00000000	          0.00000000	          4.73294017	          0.00000000	          0.00000000	          0.00000000	          0.00000000	
          1.51600000	        158.93531487	        720.78479851	        -33.82204770	          0.86124146	          0.00000000	          0.13457092	          0.00000000	          0.00000000	          0.00000000	          0.00000000	          0.00000000	          0.00000000	          0.00000000	          4.74454778	          0.00000000	          0.00000000	          0.00000000	          0.00000000	
          1.52000000	        164.17996700	        717.90468672	        -34.18298472	          0.86156080	          0.00000000	          0.13441645	          0.00000000	          0.00000000	          0.00000000	          0.00000000	          0.00000000	          0.00000000	          0.00000000	          4.74197865	          0.00000000	          0.00000000	          0.00000000	          0.00000000	
          1.52400000	        169.31289360	        713.26095435	        -33.75990133	          0.86188687	          0.00000000	          0.13423621	          0.00000000	          0.00000000	          0.00000000	          0.00000000	          0.00000000	          0.00000000	          0.00000000	          4.71689233	          0.00000000	          0.00000000	          0.00000000	          0.00000000	
          1.52800000	        174.60895396	        706.81972774	        -32.62656779	          0.86216775	          0.00000000	          0.13403203	          0.00000000	          0.00000000	          0.00000000	          0.00000000	          0.00000000	          0.00000000	          0.00000000	          4.65922315	          0.00000000	          0.00000000	          0.00000000	          0.00000000	
          1.53200000	        180.29920908	        698.49540838	        -30.97580407	          0.86233389	          0.00000000	          0.13381670	          0.00000000	          0.00000000	          0.00000000	          0.00000000	          0.00000000	          0.00000000	          0.00000000	          4.56060737	          0.00000000	          0.00000000	          0.00000000	          0.00000000	
          1.53600000	        186.44377665	        688.16718056	        -29.07784638	          0.86237208	          0.00000000	          0.13360559	          0.00000000	          0.00000000	          0.00000000	          0.00000000	          0.00000000	          0.00000000	          0.00000000	          4.41883257	          0.00000000	          0.00000000	          0.00000000	          0.00000000	
          1.54000000	        192.91422764	        675.70615587	        -27.20010992	          0.86229809	          0.00000000	          0.13339551	          0.00000000	          0.00000000	          0.00000000	          0.00000000	          0.00000000	          0.00000000	          0.00000000	          4.24042749	          0.00000000	          0.00000000	          0.00000000	          0.00000000	
          1.54400000	        199.44034213	        660.94516582	        -25.54008711	          0.86210889	          0.00000000	          0.13317512	          0.00000000	          0.00000000	          0.00000000	          0.00000000	          0.00000000	          0.00000000	          0.00000000	          4.03905814	          0.00000000	          0.00000000	          0.00000000	          0.00000000	
          1.54800000	        205.64777269	        643.61649817	        -24.18554098	          0.86179406	          0.00000000	          0.13294377	          0.00000000	          0.00000000	          0.00000000	          0.00000000	          0.00000000	          0.00000000	          0.00000000	          3.82982967	          0.00000000	          0.00000000	          0.00000000	          0.00000000	
          1.55200000	        211.07850852	        623.34528986	        -23.10414162	          0.86135919	          0.00000000	          0.13270198	          0.00000000	          0.00000000	          0.00000000	          0.00000000	          0.00000000	          0.00000000	          0.00000000	          3.62209959	          0.00000000	          0.00000000	          0.00000000	          0.00000000	
          1.55600000	        215.22802945	        599.70453258	        -22.17065750	          0.86083025	          0.00000000	          0.13244180	          0.00000000	          0.00000000	          0.00000000	          0.00000000	          0.00000000	          0.00000000	          0.00000000	          3.41453067	          0.00000000	          0.00000000	          0.00000000	          0.00000000	
          1.56000000	        217.58767147	        572.26400091	        -21.20148781	          0.86024007	          0.00000000	          0.13215029	          0.00000000	          0.00000000	          0.00000000	          0.00000000	          0.00000000	          0.00000000	          0.00000000	          3.19520464	          0.00000000	          0.00000000	          0.00000000	          0.00000000	
